<svg xmlns="http://www.w3.org/2000/svg" viewBox="0 0 256 256">
  <rect width="256" height="256" fill="#ffffff"/>
  <path d="M80 60 L80 200 L85 200 L85 60 Z" fill="#000000"/>
  <path d="M75 55 Q80 50 85 55 L85 65 Q80 70 75 65 Z" fill="#000000"/>
  <path d="M70 200 Q80 210 90 200" fill="none" stroke="#000000" stroke-width="2"/>
  <path d="M90 80 Q120 75 150 85 Q165 90 175 100 Q180 110 178 120" fill="none" stroke="#000000" stroke-width="2.5" stroke-linecap="round"/>
  <path d="M100 110 Q125 105 145 115 Q160 122 168 135" fill="none" stroke="#000000" stroke-width="2" stroke-linecap="round"/>
  <path d="M105 140 Q130 138 150 145 Q165 150 172 160" fill="none" stroke="#000000" stroke-width="2" stroke-linecap="round"/>
  <circle cx="180" cy="165" r="3" fill="#000000"/>
</svg>